<?xml version="1.0" encoding="UTF-8" standalone="no"?>
<!DOCTYPE svg PUBLIC "-//W3C//DTD SVG 1.1//EN" "http://www.w3.org/Graphics/SVG/1.1/DTD/svg11.dtd">
<svg width="100%" height="100%" viewBox="0 0 1308 250" version="1.1" xmlns="http://www.w3.org/2000/svg" xmlns:xlink="http://www.w3.org/1999/xlink" xml:space="preserve" xmlns:serif="http://www.serif.com/" style="fill-rule:evenodd;clip-rule:evenodd;stroke-linecap:round;stroke-linejoin:round;stroke-miterlimit:1.5;">
    <g transform="matrix(1,0,0,1,-288,-751)">
        <g transform="matrix(1,0,0,1,-302.786,38.7262)">
            <g transform="matrix(288,0,0,288,1725.46,607.834)">
            </g>
            <text x="620.114px" y="607.834px" style="font-family:'Parkinsans-Light', 'Parkinsans';font-weight:300;font-size:288px;">ves<tspan x="1099.63px " y="607.834px ">t</tspan>iblu</text>
        </g>
        <g transform="matrix(1,0,0,1,0,330)">
            <g transform="matrix(1,0,0,1,-302.786,38.7262)">
                <g transform="matrix(288,0,0,288,1725.46,607.834)">
                </g>
                <text x="620.114px" y="607.834px" style="font-family:'Parkinsans-Light', 'Parkinsans';font-weight:300;font-size:288px;fill:rgb(0,162,255);">ves<tspan x="1099.63px " y="607.834px ">t</tspan>iblu</text>
            </g>
            <g transform="matrix(1,0,0,1,600,0)">
                <path d="M972.125,615.645C972.125,615.645 951.422,634.846 927.559,638.294C902.186,641.96 858.273,639.872 844.401,593.111C830.533,546.363 853.439,520.911 869.412,510.056C884.428,499.851 915.099,489.323 943.423,500.873C968.551,511.119 970.484,534.26 966.12,546.937C960.727,562.601 933.316,573.496 908.483,574.499C885.66,575.421 876.501,560.191 877.53,550.753C878.558,541.315 892.433,529.526 907.276,540" style="fill:none;stroke:rgb(0,162,255);stroke-width:18px;"/>
            </g>
        </g>
    </g>
</svg>
