<?xml version="1.0" encoding="UTF-8" standalone="no"?>
<!DOCTYPE svg PUBLIC "-//W3C//DTD SVG 1.1//EN" "http://www.w3.org/Graphics/SVG/1.1/DTD/svg11.dtd">
<svg width="100%" height="100%" viewBox="0 0 1308 250" version="1.1" xmlns="http://www.w3.org/2000/svg" xmlns:xlink="http://www.w3.org/1999/xlink" xml:space="preserve" xmlns:serif="http://www.serif.com/" style="fill-rule:evenodd;clip-rule:evenodd;stroke-linecap:round;stroke-linejoin:round;stroke-miterlimit:1.5;">
    <g transform="matrix(1,0,0,1,-288,-421)">
        <g>
            <g transform="matrix(1,0,0,1,-302.786,38.7262)">
                <g>
                    <g transform="matrix(1,0,0,1,620.114,607.834)">
                        <path d="M25.92,-157.248L78.912,-19.584L131.904,-157.248L153.216,-157.248L90.144,0L67.392,0L4.32,-157.248L25.92,-157.248Z" style="fill:rgb(0,162,255);fill-rule:nonzero;"/>
                        <path d="M254.592,2.016C242.88,2.016 231.984,0.24 221.904,-3.312C211.824,-6.864 202.992,-12.048 195.408,-18.864C187.824,-25.68 181.92,-33.984 177.696,-43.776C173.472,-53.568 171.36,-64.8 171.36,-77.472C171.36,-88.992 173.616,-99.696 178.128,-109.584C182.64,-119.472 188.832,-128.16 196.704,-135.648C204.576,-143.136 213.504,-148.944 223.488,-153.072C233.472,-157.2 243.84,-159.264 254.592,-159.264C264,-159.264 272.64,-158.064 280.512,-155.664C288.384,-153.264 295.152,-149.856 300.816,-145.44C306.48,-141.024 310.896,-135.984 314.064,-130.32C317.232,-124.656 318.816,-118.464 318.816,-111.744C318.816,-101.76 316.176,-93.504 310.896,-86.976C305.616,-80.448 298.56,-75.36 289.728,-71.712C280.896,-68.064 271.2,-65.52 260.64,-64.08C250.08,-62.64 239.424,-61.92 228.672,-61.92C224.256,-61.92 219.888,-62.016 215.568,-62.208C211.248,-62.4 207.12,-62.736 203.184,-63.216C199.248,-63.696 195.552,-64.128 192.096,-64.512C193.056,-55.872 196.176,-47.808 201.456,-40.32C206.736,-32.832 213.936,-26.832 223.056,-22.32C232.176,-17.808 242.688,-15.552 254.592,-15.552C263.424,-15.552 271.584,-17.136 279.072,-20.304C286.56,-23.472 293.136,-27.264 298.8,-31.68C304.464,-36.096 308.928,-40.128 312.192,-43.776L326.88,-32.256C323.04,-27.072 317.616,-21.84 310.608,-16.56C303.6,-11.28 295.392,-6.864 285.984,-3.312C276.576,0.24 266.112,2.016 254.592,2.016ZM226.656,-79.488C234.912,-79.488 243.312,-80.016 251.856,-81.072C260.4,-82.128 268.224,-83.808 275.328,-86.112C282.432,-88.416 288.192,-91.536 292.608,-95.472C297.024,-99.408 299.232,-104.256 299.232,-110.016C299.232,-116.16 297.264,-121.632 293.328,-126.432C289.392,-131.232 284.112,-134.976 277.488,-137.664C270.864,-140.352 263.616,-141.696 255.744,-141.696C243.84,-141.696 233.088,-138.768 223.488,-132.912C213.888,-127.056 206.208,-119.568 200.448,-110.448C194.688,-101.328 191.52,-91.776 190.944,-81.792C194.976,-81.024 200.112,-80.448 206.352,-80.064C212.592,-79.68 219.36,-79.488 226.656,-79.488Z" style="fill:rgb(0,162,255);fill-rule:nonzero;"/>
                        <path d="M414.144,2.016C402.24,2.016 391.92,0.096 383.184,-3.744C374.448,-7.584 367.44,-12.816 362.16,-19.44C356.88,-26.064 353.376,-33.504 351.648,-41.76L370.08,-45.792C372,-37.152 376.56,-29.904 383.76,-24.048C390.96,-18.192 400.992,-15.264 413.856,-15.264C425.184,-15.264 433.872,-17.808 439.92,-22.896C445.968,-27.984 448.992,-34.272 448.992,-41.76C448.992,-48.288 446.736,-53.376 442.224,-57.024C437.712,-60.672 431.856,-63.6 424.656,-65.808C417.456,-68.016 409.824,-70.176 401.76,-72.288C393.696,-74.4 386.064,-77.088 378.864,-80.352C371.664,-83.616 365.808,-88.128 361.296,-93.888C356.784,-99.648 354.528,-107.328 354.528,-116.928C354.528,-124.8 356.832,-131.904 361.44,-138.24C366.048,-144.576 372.528,-149.664 380.88,-153.504C389.232,-157.344 398.88,-159.264 409.824,-159.264C421.152,-159.264 430.56,-157.44 438.048,-153.792C445.536,-150.144 451.488,-145.344 455.904,-139.392C460.32,-133.44 463.296,-126.816 464.832,-119.52L447.264,-114.336C445.536,-121.44 441.744,-127.824 435.888,-133.488C430.032,-139.152 421.152,-141.984 409.248,-141.984C398.688,-141.984 390.336,-139.584 384.192,-134.784C378.048,-129.984 374.976,-124.128 374.976,-117.216C374.976,-110.112 377.232,-104.544 381.744,-100.512C386.256,-96.48 392.064,-93.312 399.168,-91.008C406.272,-88.704 413.856,-86.496 421.92,-84.384C429.984,-82.272 437.568,-79.68 444.672,-76.608C451.776,-73.536 457.584,-69.264 462.096,-63.792C466.608,-58.32 468.864,-50.976 468.864,-41.76C468.864,-33.312 466.56,-25.776 461.952,-19.152C457.344,-12.528 450.96,-7.344 442.8,-3.6C434.64,0.144 425.088,2.016 414.144,2.016Z" style="fill:rgb(0,162,255);fill-rule:nonzero;"/>
                    </g>
                    <g transform="matrix(1,0,0,1,1099.63,607.834)">
                        <path d="M70.848,2.016C61.056,2.016 52.8,-1.248 46.08,-7.776C39.36,-14.304 36,-22.464 36,-32.256L36,-140.256L6.912,-140.256L6.912,-157.248L89.856,-157.248L89.856,-140.256L56.16,-140.256L56.16,-32.256C56.16,-27.648 57.552,-23.808 60.336,-20.736C63.12,-17.664 66.816,-16.128 71.424,-16.128C74.112,-16.128 76.704,-16.704 79.2,-17.856C81.696,-19.008 84,-20.256 86.112,-21.6L95.328,-5.76C92.448,-3.456 88.8,-1.584 84.384,-0.144C79.968,1.296 75.456,2.016 70.848,2.016ZM23.04,-146.592L23.04,-157.248C27.264,-157.248 30.48,-158.352 32.688,-160.56C34.896,-162.768 36,-165.984 36,-170.208L36,-196.704L56.448,-196.704L56.448,-173.952C56.448,-171.264 56.016,-168.768 55.152,-166.464C54.288,-164.16 52.992,-162.192 51.264,-160.56C49.536,-158.928 47.232,-157.824 44.352,-157.248L23.04,-146.592Z" style="fill:rgb(0,162,255);fill-rule:nonzero;"/>
                        <path d="M128.448,0L128.448,-157.248L148.608,-157.248L148.608,0L128.448,0ZM138.528,-186.912C134.304,-186.912 130.56,-188.4 127.296,-191.376C124.032,-194.352 122.4,-198.048 122.4,-202.464C122.4,-206.88 123.888,-210.48 126.864,-213.264C129.84,-216.048 133.728,-217.44 138.528,-217.44C142.944,-217.44 146.736,-216.048 149.904,-213.264C153.072,-210.48 154.656,-206.88 154.656,-202.464C154.656,-198.048 153.072,-194.352 149.904,-191.376C146.736,-188.4 142.944,-186.912 138.528,-186.912Z" style="fill:rgb(0,162,255);fill-rule:nonzero;"/>
                        <path d="M279.36,2.016C265.344,2.016 252.528,-1.44 240.912,-8.352C229.296,-15.264 220.992,-24.384 216,-35.712L216,-12.672C216,-8.64 214.896,-5.52 212.688,-3.312C210.48,-1.104 207.36,0 203.328,0L195.84,0L195.84,-213.12L216,-213.12L216,-122.112C220.992,-133.44 229.152,-142.464 240.48,-149.184C251.808,-155.904 264.768,-159.264 279.36,-159.264C292.992,-159.264 305.424,-155.904 316.656,-149.184C327.888,-142.464 336.816,-133.056 343.44,-120.96C350.064,-108.864 353.376,-94.848 353.376,-78.912C353.376,-62.976 350.064,-48.912 343.44,-36.72C336.816,-24.528 327.888,-15.024 316.656,-8.208C305.424,-1.392 292.992,2.016 279.36,2.016ZM274.464,-15.552C285.408,-15.552 295.296,-18.144 304.128,-23.328C312.96,-28.512 319.968,-35.856 325.152,-45.36C330.336,-54.864 332.928,-66.048 332.928,-78.912C332.928,-91.776 330.336,-102.912 325.152,-112.32C319.968,-121.728 312.96,-128.976 304.128,-134.064C295.296,-139.152 285.408,-141.696 274.464,-141.696C263.52,-141.696 253.632,-139.152 244.8,-134.064C235.968,-128.976 228.96,-121.728 223.776,-112.32C218.592,-102.912 216,-91.776 216,-78.912C216,-66.048 218.592,-54.864 223.776,-45.36C228.96,-35.856 235.968,-28.512 244.8,-23.328C253.632,-18.144 263.52,-15.552 274.464,-15.552Z" style="fill:rgb(0,162,255);fill-rule:nonzero;"/>
                        <path d="M390.528,-27.648L390.528,-213.12L410.688,-213.12L410.688,-29.376C410.688,-24.768 411.936,-21.36 414.432,-19.152C416.928,-16.944 419.904,-15.84 423.36,-15.84C425.472,-15.84 427.584,-16.224 429.696,-16.992L434.304,-1.728C430.272,0.768 425.376,2.016 419.616,2.016C415.008,2.016 410.496,1.056 406.08,-0.864C401.664,-2.784 397.968,-5.952 394.992,-10.368C392.016,-14.784 390.528,-20.544 390.528,-27.648Z" style="fill:rgb(0,162,255);fill-rule:nonzero;"/>
                        <path d="M582.624,-12.672L582.624,-157.248L602.784,-157.248L602.784,0L595.296,0C591.456,0 588.384,-1.104 586.08,-3.312C583.776,-5.52 582.624,-8.64 582.624,-12.672ZM527.04,2.016C514.176,2.016 503.136,-0.864 493.92,-6.624C484.704,-12.384 477.6,-20.256 472.608,-30.24C467.616,-40.224 465.12,-51.648 465.12,-64.512L465.12,-157.248L484.992,-157.248L484.992,-70.272C484.992,-52.8 489.504,-39.312 498.528,-29.808C507.552,-20.304 519.072,-15.552 533.088,-15.552C542.304,-15.552 550.656,-18.096 558.144,-23.184C565.632,-28.272 571.584,-35.328 576,-44.352C580.416,-53.376 582.624,-63.936 582.624,-76.032L588.672,-66.24C588.672,-50.88 585.888,-38.16 580.32,-28.08C574.752,-18 567.312,-10.464 558,-5.472C548.688,-0.48 538.368,2.016 527.04,2.016Z" style="fill:rgb(0,162,255);fill-rule:nonzero;"/>
                    </g>
                </g>
            </g>
            <g transform="matrix(1,0,0,1,600,0)">
                <path d="M972.125,615.645C972.125,615.645 951.422,634.846 927.559,638.294C902.186,641.96 858.273,639.872 844.401,593.111C830.533,546.363 853.439,520.911 869.412,510.056C884.428,499.851 915.099,489.323 943.423,500.873C968.551,511.119 970.484,534.26 966.12,546.937C960.727,562.601 933.316,573.496 908.483,574.499C885.66,575.421 876.501,560.191 877.53,550.753C878.558,541.315 892.433,529.526 907.276,540" style="fill:none;stroke:rgb(0,162,255);stroke-width:18px;"/>
            </g>
        </g>
    </g>
</svg>
